<svg xmlns="http://www.w3.org/2000/svg" width="900" height="400" viewBox="0 0 900 400" role="img" aria-labelledby="title desc">
  <title id="title">kaibush/grok-register GitHub Stars trend (light)</title>
  <desc id="desc">GitHub Stars increased from 0 to 388 between 2026-08-03 and 2026-09-01.</desc>
  <metadata>Generated by .github/scripts/update_stars_trend.py from .github/data/stars-history.json</metadata>
  <defs>
    <style>
      text { font-family: Inter, "Segoe UI", Arial, "Noto Sans CJK SC", sans-serif; }
      .title { fill: #1f2328; font-size: 22px; font-weight: 600; }
      .subtitle { fill: #59636e; font-size: 12px; }
      .count { fill: #1f2328; font-size: 24px; font-weight: 600; }
      .count-label { fill: #9a6700; font-size: 13px; font-weight: 600; }
      .grid { stroke: #d0d7de; stroke-width: 1; opacity: 0.65; }
      .axis { fill: #59636e; font-size: 11px; }
      .line { fill: none; stroke: #0969da; stroke-width: 3; stroke-linecap: round; stroke-linejoin: round; }
      .point { fill: #0969da; }
    </style>
  </defs>
  <text x="60" y="34" class="title">Stars 趋势</text>
  <text x="60" y="56" class="subtitle">kaibush/grok-register · 2026-08-03 — 2026-09-01</text>
  <text x="860" y="34" class="count" text-anchor="end">388</text>
  <text x="860" y="55" class="count-label" text-anchor="end">★ Stars</text>
  <line x1="60" y1="330.0" x2="860" y2="330.0" class="grid" /><text x="44" y="335.0" class="axis" text-anchor="end">0</text><line x1="60" y1="281.6" x2="860" y2="281.6" class="grid" /><text x="44" y="286.6" class="axis" text-anchor="end">100</text><line x1="60" y1="233.2" x2="860" y2="233.2" class="grid" /><text x="44" y="238.2" class="axis" text-anchor="end">200</text><line x1="60" y1="184.8" x2="860" y2="184.8" class="grid" /><text x="44" y="189.8" class="axis" text-anchor="end">300</text><line x1="60" y1="136.4" x2="860" y2="136.4" class="grid" /><text x="44" y="141.4" class="axis" text-anchor="end">400</text><line x1="60" y1="88.0" x2="860" y2="88.0" class="grid" /><text x="44" y="93.0" class="axis" text-anchor="end">500</text>
  <polyline points="60.0,330.0 87.6,291.8 115.2,272.4 142.8,252.6 170.3,240.0 197.9,235.1 225.5,230.8 253.1,225.0 280.7,218.2 308.3,210.5 335.9,196.9 363.4,185.8 391.0,182.9 418.6,181.4 446.2,178.0 473.8,176.1 501.4,175.1 529.0,173.2 556.6,169.8 584.1,169.8 611.7,169.3 639.3,166.4 666.9,165.0 694.5,163.5 722.1,160.6 749.7,154.8 777.2,151.9 804.8,146.6 832.4,142.7 860.0,142.2" class="line" />
  <text x="60.0" y="362" class="axis" text-anchor="middle">08-03</text><circle cx="60.0" cy="330.0" r="3.5" class="point" /><text x="170.3" y="362" class="axis" text-anchor="middle">08-07</text><circle cx="170.3" cy="240.0" r="3.5" class="point" /><text x="253.1" y="362" class="axis" text-anchor="middle">08-10</text><circle cx="253.1" cy="225.0" r="3.5" class="point" /><text x="363.4" y="362" class="axis" text-anchor="middle">08-14</text><circle cx="363.4" cy="185.8" r="3.5" class="point" /><text x="446.2" y="362" class="axis" text-anchor="middle">08-17</text><circle cx="446.2" cy="178.0" r="3.5" class="point" /><text x="556.6" y="362" class="axis" text-anchor="middle">08-21</text><circle cx="556.6" cy="169.8" r="3.5" class="point" /><text x="666.9" y="362" class="axis" text-anchor="middle">08-25</text><circle cx="666.9" cy="165.0" r="3.5" class="point" /><text x="749.7" y="362" class="axis" text-anchor="middle">08-28</text><circle cx="749.7" cy="154.8" r="3.5" class="point" /><text x="860.0" y="362" class="axis" text-anchor="middle">09-01</text><circle cx="860.0" cy="142.2" r="3.5" class="point" />
  <text x="860" y="386" class="subtitle" text-anchor="end">更新于 2026-09-01</text>
</svg>
